<svg width="18" height="18" viewBox="0 0 18 18" fill="none" xmlns="http://www.w3.org/2000/svg">
<path fill-rule="evenodd" clip-rule="evenodd" d="M11.9073 9.74298C11.9678 9.50538 12 9.25645 12 9C12 7.34315 10.6569 6 9 6C8.74355 6 8.49462 6.03218 8.25702 6.09272L9.17156 7.00726C10.1393 7.08947 10.9105 7.86073 10.9927 8.82844L11.9073 9.74298ZM7.29305 7.95718C7.10716 8.26082 7 8.61789 7 9C7 10.1046 7.89543 11 9 11C9.38211 11 9.73918 10.8928 10.0428 10.7069L10.7633 11.4274C10.2683 11.7875 9.65896 12 9 12C7.34315 12 6 10.6569 6 9C6 8.34104 6.21246 7.73169 6.57262 7.23674L7.29305 7.95718Z" fill="#3B506C"/>
<path fill-rule="evenodd" clip-rule="evenodd" d="M12.3173 12.9819L11.586 12.2506C10.7787 12.7029 9.90298 13 8.99958 13C7.78221 13 6.61519 12.4606 5.59793 11.7287C4.58461 10.9996 3.76212 10.1099 3.2445 9.4814C3.08977 9.29355 3.00941 9.19393 2.96044 9.11185C2.9243 9.05127 2.92188 9.02735 2.92188 9C2.92188 8.97265 2.9243 8.94873 2.96044 8.88815C3.00941 8.80607 3.08977 8.70645 3.2445 8.5186C3.76212 7.89014 4.58461 7.00035 5.59793 6.27131C5.59962 6.27009 5.60132 6.26887 5.60302 6.26765L4.88738 5.55201C3.83738 6.3308 2.99908 7.24365 2.47262 7.88283L2.42307 7.94269C2.18091 8.23454 1.92187 8.54671 1.92188 9C1.92188 9.45329 2.18091 9.76546 2.42307 10.0573L2.47262 10.1172C3.02006 10.7818 3.90469 11.7424 5.01391 12.5404C6.11919 13.3356 7.49015 14 8.99958 14C10.218 14 11.3462 13.5671 12.3173 12.9819ZM6.67129 4.5075C7.39228 4.19813 8.17528 4 8.99958 4C10.509 4 11.88 4.66437 12.9852 5.45957C14.0945 6.25761 14.9791 7.21817 15.5265 7.88283L15.5761 7.94269C15.8183 8.23454 16.0773 8.54671 16.0773 9C16.0773 9.45329 15.8183 9.76546 15.5761 10.0573L15.5265 10.1172C15.1468 10.5782 14.6048 11.1816 13.9382 11.7744L13.2298 11.066C13.8648 10.5068 14.3867 9.9281 14.7547 9.4814C14.9094 9.29355 14.9898 9.19393 15.0387 9.11185C15.0749 9.05127 15.0773 9.02735 15.0773 9C15.0773 8.97265 15.0749 8.94873 15.0387 8.88815C14.9898 8.80607 14.9094 8.70645 14.7547 8.5186C14.237 7.89014 13.4146 7.00035 12.4012 6.27131C11.384 5.53943 10.2169 5 8.99958 5C8.46841 5 7.94682 5.1027 7.44307 5.27928L6.67129 4.5075Z" fill="#3B506C"/>
<path d="M3.75 2L15.75 14" stroke="#3B506C"/>
</svg>
