<svg xmlns="http://www.w3.org/2000/svg" aria-hidden="true" style="position:absolute;width:0;height:0;overflow:hidden"><defs><symbol id="hidden" viewBox="0 0 32 32"><path fill="#3b506c" d="M21.169 17.321a5.333 5.333 0 0 0-6.489-6.489l1.626 1.626a3.557 3.557 0 0 1 3.238 3.238l1.626 1.626zm-8.204-3.175a3.556 3.556 0 0 0 4.889 4.889l1.281 1.281a5.333 5.333 0 0 1-7.45-7.45l1.281 1.281z" style="fill:var(--color1, #3b506c)"/><path fill="#3b506c" d="m21.897 23.079-1.3-1.3c-1.435.804-2.992 1.332-4.598 1.332-2.164 0-4.239-.959-6.047-2.26-1.801-1.296-3.264-2.878-4.184-3.995-.275-.334-.418-.511-.505-.657-.064-.108-.069-.15-.069-.199s.004-.091.069-.199c.087-.146.23-.323.505-.657.92-1.117 2.382-2.699 4.184-3.995l.009-.007L8.689 9.87c-1.867 1.384-3.357 3.007-4.293 4.144l-.088.106c-.43.519-.891 1.074-.891 1.88s.461 1.361.891 1.88l.088.107c.973 1.181 2.546 2.889 4.518 4.308 1.965 1.414 4.402 2.595 7.086 2.595 2.166 0 4.172-.77 5.898-1.81zM11.86 8.013c1.282-.55 2.674-.902 4.139-.902 2.683 0 5.121 1.181 7.086 2.595 1.972 1.419 3.545 3.126 4.518 4.308l.088.106c.431.519.891 1.074.891 1.88s-.46 1.361-.891 1.88l-.088.107a26.709 26.709 0 0 1-2.824 2.946l-1.259-1.259a24.86 24.86 0 0 0 2.711-2.817c.275-.334.418-.511.505-.657.064-.108.069-.15.069-.199s-.004-.091-.069-.199c-.087-.146-.23-.323-.505-.657-.92-1.117-2.382-2.699-4.184-3.995C20.239 9.849 18.164 8.89 16 8.89c-.944 0-1.872.183-2.767.496l-1.372-1.372z" style="fill:var(--color1, #3b506c)"/><path fill="none" stroke="#3b506c" stroke-width="1.778" d="M6.667 3.556 28 24.889" style="stroke:var(--color1, #3b506c)"/></symbol><symbol id="visibility" viewBox="0 0 32 32"><path fill="none" stroke="#3b506c" stroke-width="1.778" d="M20.444 16a4.444 4.444 0 1 1-8.888 0 4.444 4.444 0 0 1 8.888 0z" style="stroke:var(--color1, #3b506c)"/><path fill="none" stroke="#3b506c" stroke-width="1.778" d="M26.917 14.579c.517.628.776.943.776 1.421s-.259.793-.776 1.421C25.024 19.72 20.847 24 16 24s-9.024-4.28-10.917-6.579c-.518-.628-.776-.943-.776-1.421s.259-.793.776-1.421C6.976 12.28 11.153 8 16 8s9.024 4.28 10.917 6.579z" style="stroke:var(--color1, #3b506c)"/></symbol></defs></svg>